<mxfile host="app.diagrams.net" modified="2024-06-08T20:07:29.220Z" agent="Mozilla/5.0 (Windows NT 10.0; Win64; x64) AppleWebKit/537.36 (KHTML, like Gecko) Chrome/125.0.0.0 Safari/537.36" version="24.3.1" etag="OH6Okz2_sqrZ_ZfeT7Du" type="github">
  <diagram name="PÃ¡gina-1" id="SigWqFesYOogLed_nVeq">
    <mxGraphModel>
      <root>
        <mxCell id="0" />
        <mxCell id="1" parent="0" />
      </root>
    </mxGraphModel>
  </diagram>
</mxfile>
